<svg id="Capa_1" enable-background="new 0 0 343.255 343.255" height="512" viewBox="0 0 343.255 343.255" width="512" xmlns="http://www.w3.org/2000/svg"><g><g><path d="m196.458 220.128c-3.468 2.272-7.012 4.492-10.536 6.592-3.32 1.98-4.406 6.278-2.426 9.598s6.278 4.406 9.598 2.426c3.692-2.204 7.408-4.524 11.036-6.904 3.234-2.119 4.139-6.458 2.02-9.692-2.118-3.234-6.458-4.138-9.692-2.02z"/><path d="m336.446 27.116c-4.947-2.608-10.248-4.48-15.736-5.556-9.652-1.254-18.528 5.459-19.948 15.088-2.132 9.148.624 2.844-8.444 33.724-22 50.612-64.4 93.776-112.048 123.544-44.876 28-95.124 44.492-141.572 46.444-7.514-.801-14.977-2.019-22.356-3.648-7.359-1.505-14.544 3.24-16.049 10.599-.128.627-.212 1.262-.251 1.901l-.04 8.04c-.097 5.811 3.045 11.194 8.152 13.968 8.26 5.55 16.996 10.358 26.104 14.368 54.116 44.8 138.984 49.324 207.388 6.616 102.236-63.836 103.844-151.476 95.336-198.94 2.72-13.868 4.76-41.872 6.072-50.236.962-6.124-1.59-12.271-6.608-15.912zm-29.308 42.46c3.181-9.934 5.648-20.083 7.384-30.368.28-1.492 1.8-4.208 3.74-3.864 3.355.798 6.654 1.813 9.876 3.04.796.556 1.214 1.51 1.084 2.472-1.392 8.936-3.14 33.252-5.532 47.34-2.659 1.081-5.47 1.743-8.332 1.964-1.897.24-3.817-.22-5.4-1.292-2.698-2.061-5.238-4.321-7.6-6.76 2.134-3.95 3.741-8.163 4.78-12.532zm-293.14 188.392c.028-.536 0-.084.048-7.432 2.372.444 6.916 1.672 20.052 3.352 1.202 5.221 1.04 10.664-.472 15.804-5.12-2.552-18.784-9.844-19.628-11.724zm220.244 22.368c-60.8 37.964-137.396 36.488-188.084-3.124.076-.264.108-.492.184-.752 5.524.492 11.104.824 16.8.824 11.128-.023 22.237-.91 33.228-2.652 3.82-.598 6.432-4.178 5.834-7.998s-4.178-6.432-7.998-5.834c-14.989 2.42-30.212 3.062-45.352 1.912.176-2.977.042-5.963-.4-8.912 46.204-3.684 95.256-20.552 139.228-48 46.716-29.18 84.748-68.184 108.024-110.616 1.915 1.76 3.849 3.376 5.804 4.848 1.268.913 2.617 1.706 4.032 2.368-15.784 32-40.8 62.72-74.452 91.46-2.94 2.511-3.289 6.93-.778 9.87s6.93 3.289 9.87.778c36.836-31.46 63.816-65.384 80.26-100.892 1.268-.232 2.556-.516 3.904-.896 7.604 52.644-3.392 123.464-90.116 177.616z"/></g></g></svg>