<svg xmlns="http://www.w3.org/2000/svg" viewBox="0 0 507.33 513.83"><defs><style>.cls-1{fill:#ffdf48;}.cls-2{fill:#ffd400;}.cls-3{fill:#c27b48;}.cls-4{fill:#a66235;}</style></defs><g id="Layer_2" data-name="Layer 2"><g id="Capa_1" data-name="Capa 1"><path class="cls-1" d="M505.06,222.57C485,443.36,166.22,595.45,0,466.46c10.49-87.54-20.18-63.1,61.84-79.4C162.55,371,323.66,294.12,344.78,170.7c5.13-26.16,22.52-71.67,54.49-83.27V0h78.08V93.33C506.77,123.53,510.9,180.82,505.06,222.57Z"/><path class="cls-2" d="M505.06,222.57c-20.27,219.29-331,367.87-499.55,248.88l-5.51-5L2.12,431.9C505.69,501.08,440.68,0,440.68,0h36.67V93.33C506.77,123.53,510.9,180.82,505.06,222.57Z"/><path class="cls-3" d="M61.85,387.06v114C35.8,493.63,16.64,482.56,0,466.45L2.12,431.9C2.92,377,4.76,402.65,61.85,387.06Z"/><path class="cls-4" d="M61.85,437.63v63.45C35.8,493.63,16.64,482.56,0,466.45L2.12,431.9Q33.42,436.19,61.85,437.63Z"/></g></g></svg>